<svg width="45" height="35" viewBox="0 0 45 35" fill="none" xmlns="http://www.w3.org/2000/svg">
<g id="Group">
<g id="Group_2">
<path id="Vector" d="M23.3315 0.365021L2.36603 9.01047L23.3315 17.6561L44.2969 9.01047L23.3315 0.365021Z" fill="#7BAC51"/>
</g>
<g id="Group_3">
<path id="Vector_2" d="M44.2969 9.01047L23.3315 0.365021L40.7813 9.01047L23.3315 17.6561L44.2969 9.01047Z" fill="#64913E"/>
</g>
<g id="Group_4">
<path id="Vector_3" d="M2.36603 9.01047L23.3315 0.365021L5.88165 9.01047L23.3315 17.6561L2.36603 9.01047Z" fill="#99CA6F"/>
</g>
<g id="Group_5">
<path id="Vector_4" d="M23.3315 18.0077C23.2859 18.0077 23.2402 17.9989 23.1973 17.9811L2.23191 9.33549C2.10025 9.28117 2.01447 9.15285 2.01447 9.01047C2.01447 8.86809 2.10025 8.73977 2.23191 8.68545L23.1975 0.0400031C23.2833 0.00467102 23.3798 0.00467102 23.4656 0.0400031L44.431 8.68545C44.5627 8.73977 44.6484 8.86809 44.6484 9.01047C44.6484 9.15285 44.5627 9.28117 44.431 9.33549L23.4656 17.9811C23.4227 17.9987 23.377 18.0077 23.3315 18.0077ZM3.28818 9.01047L23.3315 17.2757L43.3746 9.01047L23.3315 0.745413L3.28818 9.01047Z" fill="#070DA5"/>
</g>
<g id="Group_6">
<path id="Vector_5" d="M35.4152 22.9295H11.2479V10.8393C19.119 8.40086 27.5439 8.40086 35.4152 10.8393V22.9295Z" fill="#7BAC51"/>
</g>
<g id="Group_7">
<path id="Vector_6" d="M39.7694 25.247H6.89343V31.1698H39.7694V25.247Z" fill="#F4EFED"/>
</g>
<g id="Group_8">
<path id="Vector_7" d="M39.7695 25.247H38.0117V31.1698H39.7695V25.247Z" fill="#D6D1CF"/>
</g>
<g id="Group_9">
<path id="Vector_8" d="M8.65125 25.247H6.89343V31.1698H8.65125V25.247Z" fill="white"/>
</g>
<g id="Group_10">
<path id="Vector_9" d="M39.7694 31.5215H6.89343C6.69937 31.5215 6.54187 31.364 6.54187 31.17V25.2472C6.54187 25.0531 6.69937 24.8956 6.89343 24.8956H39.7694C39.9635 24.8956 40.121 25.0531 40.121 25.2472V31.17C40.121 31.364 39.9637 31.5215 39.7694 31.5215ZM7.245 30.8184H39.4179V25.5988H7.245V30.8184Z" fill="#070DA5"/>
</g>
<g id="Group_11">
<path id="Vector_10" d="M25.7725 34.635L23.3315 32.7633L20.8904 34.635V25.247H25.7725V34.635Z" fill="#FF0101"/>
</g>
<g id="Group_12">
<path id="Vector_11" d="M4.02908 22.9295H0.703125V19.0411C0.703125 18.1226 1.44756 17.3782 2.36602 17.3782C3.28447 17.3782 4.02891 18.1228 4.02891 19.0411V22.9295H4.02908Z" fill="#FCC24C"/>
</g>
<g id="Group_13">
<path id="Vector_12" d="M35.4152 10.8393C34.8323 10.6588 34.2459 10.4932 33.6573 10.3394V22.9295H35.4152V10.8393Z" fill="#64913E"/>
</g>
<g id="Group_14">
<path id="Vector_13" d="M11.2479 10.8393C11.8308 10.6588 12.4172 10.4932 13.0057 10.3394V22.9295H11.2479V10.8393Z" fill="#99CA6F"/>
</g>
<g id="Group_15">
<path id="Vector_14" d="M35.4152 23.2811H11.2477C11.0536 23.2811 10.8961 23.1236 10.8961 22.9295V10.8393C10.8961 10.6853 10.9965 10.5491 11.1436 10.5034C19.1169 8.03348 27.5458 8.03348 35.5191 10.5034C35.6662 10.5491 35.7666 10.6851 35.7666 10.8393V22.9295C35.7667 23.1238 35.6092 23.2811 35.4152 23.2811ZM11.5993 22.578H35.0634V11.0993C27.3818 8.77229 19.2809 8.77246 11.5993 11.0993V22.578Z" fill="#070DA5"/>
</g>
<g id="Group_16">
<path id="Vector_15" d="M12.7452 17.6287C12.5511 17.6287 12.3936 17.4712 12.3936 17.2771V15.0312C12.3936 14.8371 12.5511 14.6796 12.7452 14.6796C12.9393 14.6796 13.0968 14.8371 13.0968 15.0312V17.2771C13.0968 17.4712 12.9393 17.6287 12.7452 17.6287Z" fill="#070DA5"/>
</g>
<g id="Group_17">
<path id="Vector_16" d="M2.36603 17.7297C2.17197 17.7297 2.01447 17.5722 2.01447 17.3782V9.01047C2.01447 8.81641 2.17197 8.65891 2.36603 8.65891C2.56009 8.65891 2.71759 8.81641 2.71759 9.01047V17.3782C2.71759 17.5722 2.56009 17.7297 2.36603 17.7297Z" fill="#070DA5"/>
</g>
<g id="Group_18">
<path id="Vector_17" d="M4.02908 23.2811H0.703125C0.509063 23.2811 0.351562 23.1236 0.351562 22.9295V19.0409C0.351562 17.9301 1.25525 17.0264 2.36602 17.0264C3.47678 17.0264 4.38064 17.9301 4.38064 19.0409V22.9295C4.38064 23.1238 4.22314 23.2811 4.02908 23.2811ZM1.05469 22.578H3.67752V19.0409C3.67752 18.3179 3.08918 17.7296 2.36602 17.7296C1.64303 17.7296 1.05469 18.3179 1.05469 19.0409V22.578V22.578Z" fill="#070DA5"/>
</g>
<g id="Group_19">
<path id="Vector_18" d="M25.7725 34.9866C25.6966 34.9866 25.6212 34.9619 25.5586 34.914L23.3314 33.2062L21.1041 34.914C20.998 34.9953 20.8545 35.0094 20.7346 34.9502C20.6146 34.8909 20.5386 34.7688 20.5386 34.635V25.247C20.5386 25.053 20.6961 24.8955 20.8902 24.8955H25.7723C25.9664 24.8955 26.1239 25.053 26.1239 25.247V34.635C26.1239 34.7688 26.0478 34.8911 25.9279 34.9502C25.8789 34.9746 25.8256 34.9866 25.7725 34.9866ZM21.2419 25.5986V33.9224L23.1177 32.4843C23.2437 32.3876 23.4195 32.3876 23.5455 32.4843L25.4211 33.9224V25.5986H21.2419Z" fill="#070DA5"/>
</g>
</g>
</svg>