<svg width="38" height="41" viewBox="0 0 38 41" fill="none" xmlns="http://www.w3.org/2000/svg">
<path d="M21.1377 12.7659C20.9714 12.7659 20.8135 12.8152 20.6701 12.9024V14.5579C20.6701 15.011 20.63 15.455 20.5573 15.8875C20.7292 16.0253 20.9253 16.1104 21.1377 16.1104C21.7919 16.1104 22.3221 15.3615 22.3221 14.438C22.3221 13.5144 21.7916 12.7659 21.1377 12.7659Z" fill="white"/>
<path d="M4.77351 14.5579V12.9024C4.63008 12.8152 4.47222 12.7659 4.30594 12.7659C3.65168 12.7659 3.12152 13.5148 3.12152 14.4383C3.12152 15.3619 3.65168 16.1107 4.30594 16.1107C4.51793 16.1107 4.7141 16.0256 4.88636 15.8878C4.81359 15.4547 4.77351 15.011 4.77351 14.5579Z" fill="white"/>
<path d="M14.875 22.2947H14.5399C13.956 22.4315 13.3478 22.506 12.722 22.506C12.0962 22.506 11.488 22.4315 10.9041 22.2947H10.5687C4.92609 22.2947 0.351562 26.8689 0.351562 32.5118V39.6039C0.351562 39.992 0.666211 40.307 1.05469 40.307H25.0921V32.5118C25.0921 26.8692 20.5175 22.2947 14.875 22.2947Z" fill="#0089EF"/>
<path d="M10.3258 34.1958V31.5496L8.91951 22.4279C8.52083 22.4926 8.1299 22.5798 7.74845 22.6891L6.3197 26.9888L8.7374 28.2097L7.93162 30.0702L10.3258 34.1958Z" fill="#6DC9F7"/>
<path d="M19.124 26.9888L17.6952 22.6891C17.3134 22.5798 16.9225 22.4926 16.5242 22.4279L15.1179 31.5496V34.1958L17.5121 30.0702L16.7063 28.2097L19.124 26.9888Z" fill="#6DC9F7"/>
<path d="M14.5396 22.2947C13.9556 22.4315 13.3474 22.506 12.722 22.506C12.0962 22.506 11.4884 22.4315 10.9044 22.2947H10.5687C10.0072 22.2947 9.45633 22.3407 8.91949 22.4279L10.3257 31.5496V40.307H15.1175V31.5496L16.5238 22.4279C15.987 22.3407 15.4364 22.2947 14.8746 22.2947H14.5396Z" fill="white"/>
<path d="M15.2008 22.3031L12.7216 23.8813L15.4279 26.7873L17.3608 22.6009C16.6665 22.4272 15.9433 22.3263 15.2008 22.3031Z" fill="white"/>
<path d="M8.08276 22.6009L10.0157 26.7873L12.722 23.8813L10.2428 22.3031C9.49991 22.3263 8.7771 22.4272 8.08276 22.6009Z" fill="white"/>
<path d="M12.7216 22.506C11.656 22.506 10.64 22.2947 9.71118 21.9143V21.9628L12.7216 23.8809L15.7349 21.9628V21.9129C14.8053 22.2943 13.7886 22.506 12.7216 22.506Z" fill="white"/>
<path d="M16.5568 5.84192H8.88678C6.61498 5.84192 4.7735 7.6834 4.7735 9.9552V14.5582C4.7735 18.9478 8.33201 22.5063 12.7216 22.5063C17.1112 22.5063 20.6697 18.9478 20.6697 14.5582V9.95485C20.6701 7.6834 18.8283 5.84192 16.5568 5.84192Z" fill="white"/>
<path d="M37.1334 25.8521H20.4275C19.1186 25.8521 18.058 26.9132 18.058 28.2217V37.9371C18.058 39.246 19.119 40.3066 20.4275 40.3066H37.1334C38.4423 40.3066 39.5029 39.2456 39.5029 37.9371V28.222C39.5029 26.9132 38.4419 25.8521 37.1334 25.8521Z" fill="#130207"/>
<path d="M37.1334 25.8521H20.4275C19.1186 25.8521 18.058 26.9132 18.058 28.2217V31.4286C18.058 32.7375 19.119 33.7982 20.4275 33.7982H37.1334C38.4423 33.7982 39.5029 32.7371 39.5029 31.4286V28.2217C39.5029 26.9132 38.4419 25.8521 37.1334 25.8521Z" fill="#1D4F0B"/>
<path d="M37.1334 25.8521H20.4275C19.119 25.8521 18.058 26.9132 18.058 28.2217V29.2764C18.058 27.9678 19.119 26.9068 20.4275 26.9068H37.1334C38.4423 26.9068 39.5029 27.9678 39.5029 29.2764V28.2217C39.5029 26.9132 38.4419 25.8521 37.1334 25.8521Z" fill="white"/>
<path d="M26.5022 25.8522L26.5043 24.5359L31.0584 24.5433L31.0563 25.8522H32.2516L32.2544 24.2065C32.2552 23.7343 31.8712 23.3494 31.3991 23.3483L26.1675 23.3402C25.6975 23.3395 25.3104 23.7234 25.3093 24.1956L25.3065 25.8525H26.5022V25.8522Z" fill="#130207"/>
<path d="M24.6972 35.6157C24.2757 35.615 23.9312 35.2695 23.9319 34.8479L23.9354 32.7196C23.9361 32.2981 24.2817 31.9535 24.7032 31.9542C25.1247 31.9549 25.4693 32.3005 25.4686 32.722L25.465 34.8504C25.4643 35.2719 25.1188 35.6165 24.6972 35.6157Z" fill="#6DC9F7"/>
<path d="M32.8581 35.6291C32.4365 35.6284 32.092 35.2828 32.0927 34.8613L32.0962 32.7329C32.0969 32.3114 32.4425 31.9669 32.864 31.9676C33.2856 31.9683 33.6301 32.3139 33.6294 32.7354L33.6259 34.8637C33.6248 35.2853 33.2796 35.6294 32.8581 35.6291Z" fill="#6DC9F7"/>
<path d="M9.21517 12.6506C8.77607 12.6506 8.42029 13.0064 8.42029 13.4455C8.42029 13.8846 8.77607 14.2404 9.21517 14.2404C9.65427 14.2404 10.0101 13.8846 10.0101 13.4455C10.0101 13.0064 9.65427 12.6506 9.21517 12.6506Z" fill="#3A2C60"/>
<path d="M16.2285 12.6506C15.7894 12.6506 15.4336 13.0064 15.4336 13.4455C15.4336 13.8846 15.7894 14.2404 16.2285 14.2404C16.6676 14.2404 17.0234 13.8846 17.0234 13.4455C17.023 13.0064 16.6672 12.6506 16.2285 12.6506Z" fill="#3A2C60"/>
<path d="M12.7216 17.3345C13.4139 17.3345 13.9771 16.7709 13.9771 16.0791V15.5493C13.9771 15.3548 13.8199 15.1977 13.6255 15.1977C13.4311 15.1977 13.2739 15.3548 13.2739 15.5493V16.0791C13.2739 16.3835 13.0261 16.6314 12.7216 16.6314C12.4172 16.6314 12.1697 16.3835 12.1697 16.0791V15.5493C12.1697 15.3548 12.0125 15.1977 11.8181 15.1977C11.6237 15.1977 11.4666 15.3548 11.4666 15.5493V16.0791C11.4666 16.7713 12.0294 17.3345 12.7216 17.3345Z" fill="#3A2C60"/>
<path d="M15.6235 11.906L17.1802 12.1771C17.2009 12.1806 17.221 12.1823 17.241 12.1823C17.409 12.1823 17.557 12.0618 17.5869 11.8912C17.6203 11.7 17.492 11.5179 17.3011 11.4845L15.7444 11.2134C15.5496 11.1814 15.371 11.3087 15.3376 11.4993C15.3042 11.6905 15.4322 11.8726 15.6235 11.906Z" fill="#3A2C60"/>
<path d="M9.69928 11.2131L8.14256 11.4841C7.95131 11.5175 7.82334 11.6996 7.85674 11.8909C7.88662 12.0614 8.03498 12.182 8.20268 12.182C8.22272 12.182 8.24275 12.1802 8.2635 12.1767L9.82022 11.9057C10.0115 11.8723 10.1394 11.6902 10.106 11.4989C10.073 11.3084 9.8944 11.1811 9.69928 11.2131Z" fill="#3A2C60"/>
<path d="M14.7632 18.4591C14.8799 18.3052 14.8496 18.0865 14.6964 17.9687C14.5434 17.8513 14.323 17.8794 14.2045 18.033C14.1827 18.0605 13.6684 18.7087 12.722 18.7087C11.7538 18.7087 11.2648 18.0668 11.2447 18.0394C11.1312 17.8836 10.9128 17.8485 10.7553 17.962C10.5978 18.0756 10.5623 18.2953 10.6759 18.4528C10.704 18.4918 11.3836 19.4122 12.7216 19.4122C14.0263 19.4119 14.7336 18.4982 14.7632 18.4591Z" fill="#3A2C60"/>
<path d="M33.4958 39.9554H31.0967C30.9023 39.9554 30.7452 40.1126 30.7452 40.307C30.7452 40.5014 30.9023 40.6586 31.0967 40.6586H33.4958C33.6902 40.6586 33.8474 40.5014 33.8474 40.307C33.8474 40.1126 33.6899 39.9554 33.4958 39.9554Z" fill="#3A2C60"/>
<path d="M37.1331 25.5006H32.6036L32.6057 24.2068C32.606 23.8848 32.4809 23.5814 32.2527 23.3525C32.0249 23.1237 31.7215 22.9971 31.3995 22.9968L26.1675 22.9883C26.1671 22.9883 26.1664 22.9883 26.1657 22.9883C25.8451 22.9883 25.5428 23.1135 25.3139 23.3409C25.0847 23.5691 24.9578 23.8725 24.9574 24.1945L24.9553 25.5006H22.7721C21.1338 23.6573 18.8624 22.3917 16.3023 22.0444C18.5502 20.9647 20.238 18.9011 20.809 16.4155C20.9148 16.4454 21.0241 16.4619 21.1373 16.4619C21.9987 16.4619 22.6733 15.5732 22.6733 14.438C22.6733 13.4944 22.2064 12.7227 21.5539 12.4889V6.08871C21.5539 4.66031 20.5594 3.46641 19.2255 3.15563C19.4059 2.97738 19.568 2.76504 19.6812 2.51086C20.3221 1.07473 19.0294 0 18.7404 0C18.4767 0 18.5692 0.478125 17.6041 1.11902C16.6359 1.76168 15.7482 1.83551 15.7482 1.83551C15.7482 1.83551 13.0753 -0.000703158 10.0997 0.500273C7.96465 0.85957 6.36539 2.47395 5.62957 3.35953C4.6023 3.84012 3.88898 4.87969 3.88898 6.08871V12.4889C3.23684 12.723 2.76996 13.4944 2.76996 14.438C2.76996 15.5732 3.44461 16.4619 4.30594 16.4619C4.41914 16.4619 4.52848 16.4454 4.63395 16.4155C5.20488 18.9011 6.89238 20.9647 9.14062 22.0444C3.98672 22.744 0 27.1691 0 32.5118V39.6039C0 40.1854 0.473203 40.6586 1.05469 40.6586H10.3257H15.1175H20.4275H25.0917H29.6044C29.7988 40.6586 29.9559 40.5014 29.9559 40.307C29.9559 40.1126 29.7988 39.9554 29.6044 39.9554H20.4275C19.3148 39.9554 18.4099 39.0502 18.4099 37.9375V33.2476C18.9081 33.7999 19.627 34.1497 20.4275 34.1497H23.5818L23.5807 34.8469C23.5796 35.4635 24.0803 35.9663 24.6966 35.9673C24.6973 35.9673 24.698 35.9673 24.6987 35.9673C24.9957 35.9673 25.2759 35.8513 25.4872 35.6404C25.6996 35.4291 25.8166 35.1489 25.817 34.8511L25.818 34.1497H31.7426L31.7415 34.8602C31.7412 35.1584 31.8572 35.4389 32.0685 35.6509C32.2798 35.8629 32.56 35.98 32.8577 35.9803C32.8584 35.9803 32.8591 35.9803 32.8598 35.9803C33.1569 35.9803 33.4371 35.8643 33.6484 35.6534C33.8604 35.4421 33.9775 35.1619 33.9778 34.8641L33.9789 34.1497H37.1338C37.9346 34.1497 38.6536 33.7999 39.1518 33.2473V37.9371C39.1518 39.0498 38.2465 39.9551 37.1338 39.9551H34.9583C34.7639 39.9551 34.6068 40.1122 34.6068 40.3066C34.6068 40.5011 34.7639 40.6582 34.9583 40.6582H37.1338C38.6343 40.6582 39.8549 39.4372 39.8549 37.9371V31.4286V31.3024V28.2217C39.8545 26.7216 38.6336 25.5006 37.1331 25.5006ZM30.7055 25.5006H26.8545L26.8555 24.8882L30.7065 24.8945L30.7055 25.5006ZM25.6612 24.1956C25.6616 24.0616 25.7143 23.9351 25.8107 23.8395C25.9063 23.7442 26.0329 23.6914 26.1664 23.6914C26.1668 23.6914 26.1671 23.6914 26.1671 23.6914L31.3991 23.6999C31.5334 23.7002 31.66 23.753 31.7556 23.8489C31.8512 23.9449 31.9036 24.0715 31.9032 24.2058L31.9011 25.5006H31.4093L31.4107 24.544C31.4111 24.3496 31.2539 24.1921 31.0598 24.1917L26.505 24.1843C26.5046 24.1843 26.5046 24.1843 26.5043 24.1843C26.4111 24.1843 26.3218 24.2209 26.2561 24.287C26.19 24.3527 26.1527 24.442 26.1527 24.5352L26.1513 25.5006H25.6591L25.6612 24.1956ZM21.8071 25.5006H20.4272C19.9505 25.5006 19.5026 25.6247 19.1127 25.8409L18.25 23.2446C19.5961 23.7368 20.8072 24.5113 21.8071 25.5006ZM17.7068 29.6357L17.1605 28.3743L17.7131 28.0951C17.711 28.1373 17.7068 28.1791 17.7068 28.2217V29.6357ZM17.9033 27.2113L16.5477 27.8958C16.3818 27.9795 16.3097 28.1784 16.3835 28.3493L17.1186 30.047L15.4695 32.889V31.5759L16.4043 25.5111L17.485 23.1711L18.5196 26.2846C18.2545 26.5458 18.0439 26.8608 17.9033 27.2113ZM6.16113 27.3027L8.28316 28.3743L7.60887 29.9306C7.56457 30.0329 7.5716 30.1504 7.6275 30.2467L9.97453 34.2907V39.9554H6.67125V30.3223C6.67125 28.2509 5.53289 26.3749 3.7343 25.4074C4.71586 24.4628 5.89043 23.7171 7.19473 23.2411L5.98605 26.8784C5.93086 27.0436 6.00539 27.2239 6.16113 27.3027ZM9.97418 32.8897L8.32465 30.0473L9.06012 28.3497C9.13395 28.1788 9.06223 27.9798 8.89594 27.8961L6.74894 26.8119L7.95902 23.1718L9.03973 25.5118L9.97453 31.577V32.8897H9.97418ZM8.5834 22.847C9.09106 22.7429 9.61348 22.6796 10.1461 22.6571L12.1767 23.9509L10.1155 26.1643L8.5834 22.847ZM12.7216 23.4643L11.6648 22.7911C11.6655 22.7911 11.6634 22.7879 11.6638 22.7879C12.0104 22.8322 12.363 22.8575 12.7216 22.8575C13.0806 22.8575 13.4336 22.8319 13.7805 22.7876C13.7809 22.7883 13.7788 22.7907 13.7802 22.7904L12.7216 23.4643ZM13.2669 23.9509L15.2986 22.6575C15.8309 22.68 16.3519 22.745 16.8588 22.8491L15.3281 26.1643L13.2669 23.9509ZM21.9705 14.438C21.9705 15.1538 21.5891 15.7588 21.1377 15.7588C21.0691 15.7588 21.0034 15.7398 20.9394 15.7127C20.9921 15.3352 21.0217 14.9498 21.0217 14.5579V13.1319C21.0596 13.1231 21.0983 13.1171 21.1377 13.1171C21.5891 13.1171 21.9705 13.7222 21.9705 14.438ZM4.30594 15.7588C3.85453 15.7588 3.47309 15.1538 3.47309 14.438C3.47309 13.7222 3.85453 13.1171 4.30594 13.1171C4.34531 13.1171 4.38363 13.1231 4.4216 13.1319V14.5579C4.4216 14.9498 4.45078 15.3352 4.50387 15.7131C4.44023 15.7398 4.37449 15.7588 4.30594 15.7588ZM5.12508 14.5579V10.4755C5.3884 9.51152 5.78039 8.5834 6.30457 7.72172C6.56473 7.29422 6.88148 6.91418 7.23691 6.5802C7.73578 6.33516 8.29441 6.19383 8.8868 6.19383H8.97152C9.83813 6.52359 11.1938 6.73629 12.7216 6.73629C14.2495 6.73629 15.6052 6.52359 16.4718 6.19383H16.5565C17.1489 6.19383 17.7075 6.33516 18.2064 6.5802C18.5618 6.91418 18.8782 7.29422 19.1384 7.72172C19.6625 8.5834 20.0542 9.51117 20.3179 10.4748V14.5582C20.3179 18.7471 16.9102 22.1548 12.7213 22.1548C8.53242 22.1548 5.12508 18.7467 5.12508 14.5579ZM0.703125 39.6039V32.5118C0.703125 29.9872 1.65727 27.682 3.22277 25.9351C4.89762 26.7504 5.96813 28.4442 5.96813 30.3219V39.9551H1.05469C0.860977 39.9554 0.703125 39.7979 0.703125 39.6039ZM10.6734 31.4961L10.0016 27.1375C10.0062 27.1375 10.0111 27.1385 10.0157 27.1385C10.1123 27.1385 10.2059 27.0988 10.2727 27.0267L11.2099 26.0202L11.8737 27.8902L11.3432 39.9558H10.6773V31.5499C10.6773 31.5316 10.6763 31.5137 10.6734 31.4961ZM14.1001 39.9554L13.5696 27.8898L14.2334 26.0198L15.1706 27.0264C15.2374 27.0984 15.3309 27.1382 15.4276 27.1382C15.4322 27.1382 15.4371 27.1371 15.4417 27.1371L14.7698 31.4958C14.767 31.5137 14.7656 31.5316 14.7656 31.5492V39.9551H14.1001V39.9554ZM18.6089 39.9554H15.4695V34.2907L17.7068 30.4348V31.3024V31.4286V37.9375C17.7068 38.7383 18.0562 39.4569 18.6089 39.9554ZM25.1135 34.85C25.1132 35.0786 24.9272 35.2645 24.6983 35.2645C24.698 35.2645 24.6976 35.2645 24.6976 35.2645C24.4691 35.2642 24.2831 35.0779 24.2835 34.8486L24.287 32.7206C24.2873 32.4921 24.4733 32.3061 24.7018 32.3061C24.7022 32.3061 24.7025 32.3061 24.7025 32.3061C24.9314 32.3065 25.1174 32.4928 25.117 32.7217L25.1135 34.85ZM33.274 34.863C33.2736 35.0916 33.0877 35.2775 32.8591 35.2775C32.8588 35.2775 32.8584 35.2775 32.8584 35.2775C32.6296 35.2772 32.4436 35.0909 32.4439 34.862L32.4475 32.7336C32.4478 32.5051 32.6338 32.3191 32.8627 32.3191C32.863 32.3191 32.8634 32.3191 32.8634 32.3191C33.0919 32.3195 33.2779 32.5058 33.2775 32.7347L33.274 34.863ZM37.1331 33.4466H33.9792L33.9803 32.7361C33.9813 32.1195 33.4807 31.6171 32.8644 31.616C32.8637 31.616 32.863 31.616 32.8623 31.616C32.5652 31.616 32.285 31.732 32.0738 31.943C31.8614 32.1543 31.7443 32.4345 31.744 32.7322L31.7429 33.4466H25.8188L25.8198 32.7227C25.8202 32.4246 25.7041 32.1441 25.4929 31.9321C25.2816 31.7201 25.0014 31.603 24.7036 31.6027C24.7029 31.6027 24.7022 31.6027 24.7015 31.6027C24.4044 31.6027 24.1242 31.7187 23.9129 31.9296C23.7009 32.1409 23.5839 32.4211 23.5835 32.7189L23.5825 33.4463H20.4272C19.3145 33.4463 18.4096 32.541 18.4096 31.4283V31.3021V28.2217C18.4096 27.109 19.3145 26.2037 20.4272 26.2037H37.1331C38.2458 26.2037 39.1511 27.109 39.1511 28.2217V31.4286C39.1514 32.5413 38.2458 33.4466 37.1331 33.4466Z" fill="#3A2C60"/>
</svg>
